<?xml version="1.0" standalone="no"?>
<!DOCTYPE svg PUBLIC "-//W3C//DTD SVG 20010904//EN"
 "http://www.w3.org/TR/2001/REC-SVG-20010904/DTD/svg10.dtd">
<svg version="1.0" xmlns="http://www.w3.org/2000/svg"
 width="750.000000pt" height="375.000000pt" viewBox="0 0 750.000000 375.000000"
 preserveAspectRatio="xMidYMid meet">

<g transform="translate(0.000000,375.000000) scale(0.100000,-0.100000)"
fill="#000000" stroke="none">
<path d="M0 3645 c0 -121 -5 -119 90 -41 59 50 118 73 265 105 165 37 157 40
-107 40 l-248 1 0 -105z"/>
<path d="M1092 3745 c6 -6 151 -35 174 -35 8 0 14 9 14 20 0 19 -7 20 -97 20
-53 0 -94 -2 -91 -5z"/>
<path d="M1951 3715 c-41 -37 -61 -44 -61 -21 0 22 -27 38 -50 31 -28 -9 -119
-101 -131 -132 -14 -38 -11 -51 16 -69 34 -22 86 -11 131 28 35 31 52 35 162
38 27 0 62 48 62 85 0 55 -15 75 -55 75 -26 0 -45 -9 -74 -35z"/>
<path d="M2440 3743 c1 -5 7 -19 15 -33 20 -35 18 -77 -6 -130 -24 -54 -51
-84 -103 -117 -35 -22 -48 -25 -106 -21 -49 4 -77 12 -109 32 -75 48 -165 70
-197 48 -20 -13 -65 -161 -62 -203 l3 -40 131 67 c120 61 138 67 205 71 74 5
154 -12 154 -31 0 -5 -38 -24 -84 -42 -47 -19 -91 -40 -98 -47 -30 -30 16 -65
122 -93 91 -25 109 -19 151 51 10 17 13 17 82 0 78 -19 121 -14 124 13 3 39
-4 67 -28 101 -29 43 -31 86 -5 101 11 5 43 10 71 10 80 0 159 51 136 89 -3 5
10 28 29 52 37 47 42 68 23 87 -18 18 -37 14 -63 -14 -30 -32 -48 -23 -43 22
4 32 2 34 -27 34 -18 -1 -43 -12 -65 -30 -19 -17 -38 -30 -42 -30 -14 0 -9 23
9 42 15 17 12 18 -100 18 -65 0 -117 -3 -117 -7z"/>
<path d="M3070 3735 c0 -39 94 -75 155 -59 20 5 45 40 45 64 0 6 -43 10 -100
10 -81 0 -100 -3 -100 -15z"/>
<path d="M3555 3718 c-4 -18 -13 -52 -21 -76 -24 -73 -18 -123 20 -181 l35
-51 -22 -12 c-14 -8 -94 -14 -217 -18 -107 -4 -203 -10 -213 -14 -17 -8 -17
-9 0 -22 25 -18 9 -43 -50 -74 -63 -33 -64 -61 -4 -77 70 -19 258 -127 315
-182 51 -48 72 -56 72 -28 0 7 17 37 38 68 20 30 63 94 95 141 31 47 57 90 57
95 0 4 8 18 18 31 17 22 20 22 52 9 58 -24 117 -29 190 -17 90 15 104 29 97
94 -3 28 -11 63 -17 78 -17 36 -73 62 -118 54 -77 -12 -96 43 -42 124 16 25
30 55 30 68 0 21 -4 22 -65 22 -45 0 -74 -5 -92 -17 -24 -16 -26 -16 -38 0 -9
12 -27 17 -63 17 -49 0 -51 -1 -57 -32z"/>
<path d="M4053 3718 c-79 -81 -60 -124 62 -148 32 -7 52 -3 99 17 32 13 80 27
107 30 47 6 49 5 49 -18 0 -14 7 -35 16 -48 15 -21 23 -23 74 -19 51 4 66 10
114 49 93 73 124 87 284 125 83 20 152 38 152 40 0 2 -208 4 -463 4 l-463 0
-31 -32z"/>
<path d="M5625 3739 c17 -5 59 -14 94 -20 52 -9 65 -9 72 2 17 27 8 29 -93 28
-78 -1 -96 -3 -73 -10z"/>
<path d="M6470 3715 c-50 -42 -58 -43 -70 -10 -5 14 -14 25 -20 25 -49 0 -160
-116 -160 -167 0 -25 34 -53 66 -53 12 0 45 16 74 36 40 28 65 37 108 40 89 8
101 12 117 44 52 100 -27 159 -115 85z"/>
<path d="M6964 3728 c23 -36 26 -74 10 -128 -18 -60 -52 -102 -110 -136 -63
-37 -133 -31 -236 20 -83 41 -144 54 -174 38 -30 -16 -87 -223 -66 -236 5 -3
43 12 83 35 133 72 180 90 251 96 72 6 161 -12 155 -31 -2 -6 -39 -25 -82 -43
-88 -37 -111 -54 -101 -78 12 -33 171 -84 221 -71 14 4 32 20 41 39 9 17 18
33 19 35 2 2 42 -4 88 -14 71 -15 88 -16 101 -5 25 21 19 71 -14 121 -16 25
-30 50 -30 56 0 28 28 45 80 50 30 3 64 7 76 9 35 7 74 45 74 71 0 13 16 44
35 70 38 49 42 63 23 82 -19 19 -45 14 -67 -14 -25 -32 -41 -24 -41 22 0 30
-3 34 -25 34 -13 0 -45 -14 -70 -32 -51 -36 -65 -34 -34 5 l20 27 -121 0 -120
0 14 -22z"/>
<path d="M355 3480 c-11 -5 -60 -9 -108 -9 -81 -1 -90 -3 -111 -26 -22 -24
-26 -24 -76 -15 -29 6 -54 10 -56 10 -2 0 -4 -84 -4 -186 l0 -185 43 3 42 3 5
47 c3 26 8 50 11 53 3 3 37 12 75 21 120 28 144 42 171 101 19 41 34 58 64 73
43 23 56 51 40 93 -9 22 -17 27 -43 26 -18 0 -42 -4 -53 -9z"/>
<path d="M1009 3486 c-3 -3 -27 -8 -54 -11 -73 -9 -125 -24 -167 -48 -45 -25
-47 -34 -10 -43 38 -9 96 -40 111 -58 19 -23 28 -20 36 11 8 34 38 76 84 119
24 22 31 34 20 34 -9 0 -18 -2 -20 -4z"/>
<path d="M4294 3453 c-8 -45 2 -106 26 -153 22 -43 19 -50 -25 -50 -54 0 -133
-29 -154 -57 -29 -36 -26 -60 12 -84 28 -18 42 -19 107 -14 143 12 218 24 225
35 3 5 29 11 58 15 28 4 62 16 75 25 12 10 54 24 93 31 89 16 127 41 159 104
18 36 36 55 63 68 33 17 37 23 37 55 0 56 -10 65 -61 58 -24 -4 -88 -10 -142
-14 -85 -6 -101 -10 -117 -29 -16 -21 -22 -22 -76 -13 -33 6 -77 10 -99 10
-22 0 -70 11 -107 24 l-67 24 -7 -35z"/>
<path d="M5519 3485 c-3 -2 -38 -9 -79 -16 -76 -11 -150 -39 -170 -64 -9 -10
-4 -15 22 -20 41 -9 87 -34 111 -59 20 -22 18 -24 47 34 12 25 43 64 69 88 37
34 42 42 25 42 -11 0 -23 -2 -25 -5z"/>
<path d="M1340 3375 c-14 -8 -45 -14 -69 -15 -45 0 -101 -27 -124 -59 -23 -34
-89 -71 -138 -77 l-48 -7 6 -61 c3 -33 9 -64 12 -68 4 -4 28 -12 54 -17 l46
-8 -5 41 c-5 32 -2 47 14 66 19 24 26 25 161 30 121 5 144 8 168 26 15 12 29
33 31 47 3 22 -3 28 -44 46 -40 18 -46 24 -42 46 3 14 5 25 4 25 0 -1 -12 -7
-26 -15z"/>
<path d="M5866 3379 c-10 -6 -47 -15 -83 -19 -60 -8 -68 -12 -122 -63 -57 -54
-104 -77 -162 -77 -26 0 -27 -1 -18 -37 5 -21 9 -52 9 -70 0 -29 3 -33 38 -38
20 -4 45 -9 54 -12 16 -4 17 1 12 41 -6 39 -3 48 19 70 25 25 31 26 132 26
123 0 190 14 210 43 26 37 18 54 -31 73 -42 16 -45 20 -42 46 3 15 4 28 4 28
-1 0 -9 -5 -20 -11z"/>
<path d="M2810 3230 c-13 -8 -13 -10 2 -10 9 0 33 -9 52 -21 19 -11 41 -17 47
-13 8 5 9 3 4 -6 -5 -9 -2 -10 13 -6 13 4 20 2 19 -6 -2 -52 0 -53 71 -54 53
-1 62 1 42 8 -14 6 -36 14 -49 19 -45 18 -12 20 47 4 39 -11 62 -23 65 -35 2
-9 14 -20 26 -23 19 -5 20 -3 9 11 -11 14 -10 15 7 8 11 -5 29 -11 40 -14 11
-2 26 -9 33 -15 7 -5 15 -8 18 -5 2 3 -12 13 -33 23 -21 10 -45 23 -53 30 -18
15 -147 62 -207 75 -23 5 -58 16 -78 25 -43 17 -54 18 -75 5z"/>
<path d="M2708 3213 c7 -3 16 -2 19 1 4 3 -2 6 -13 5 -11 0 -14 -3 -6 -6z"/>
<path d="M2638 3167 c-21 -6 -38 -14 -38 -19 0 -13 39 -9 71 8 36 18 49 12 25
-11 -9 -9 -16 -18 -16 -19 0 -1 24 2 54 7 49 9 52 11 37 26 -19 19 -80 22
-133 8z"/>
<path d="M1730 3155 c-7 -8 -43 -37 -80 -65 -58 -43 -74 -50 -114 -50 -25 0
-72 -9 -103 -19 -32 -11 -110 -33 -175 -50 -237 -61 -300 -123 -243 -241 19
-39 26 -66 21 -83 -9 -38 -52 -84 -115 -124 -91 -58 -113 -100 -73 -136 23
-21 117 -40 155 -31 28 6 35 -4 17 -22 -7 -7 3 -14 32 -23 24 -7 97 -39 164
-72 144 -72 152 -71 236 11 61 59 77 98 36 83 -37 -12 -114 -6 -142 12 -32 21
-39 44 -30 92 10 52 102 144 163 162 62 18 219 26 254 12 25 -10 27 -15 25
-52 -3 -40 -1 -42 32 -54 19 -7 34 -17 33 -21 -9 -52 -23 -175 -23 -212 l0
-47 -58 0 c-87 -1 -176 -38 -238 -100 -30 -29 -71 -59 -98 -69 -57 -22 -84
-59 -96 -133 -14 -82 -14 -81 29 -88 56 -9 189 -60 212 -81 39 -35 20 -67 -46
-80 -37 -7 -38 -8 -17 -17 24 -11 39 -48 26 -68 -5 -8 -2 -11 7 -7 83 32 199
29 268 -7 44 -22 45 -30 17 -90 -23 -48 -30 -55 -64 -60 -83 -14 -125 -37
-191 -108 -36 -38 -78 -75 -94 -83 -15 -8 -64 -19 -109 -25 -45 -5 -90 -15
-100 -20 -24 -13 -38 -4 -38 25 0 31 -24 50 -54 42 -34 -8 -41 -47 -17 -102
l20 -45 -41 -42 c-40 -41 -42 -42 -109 -42 -74 0 -121 23 -127 63 -4 26 -17
30 -102 38 -86 8 -108 3 -156 -41 -54 -48 -153 -87 -240 -93 -85 -5 -134 8
-167 47 -25 30 -42 29 -69 -3 -20 -24 -15 -53 13 -78 15 -13 33 -15 97 -11 77
6 80 5 113 -25 31 -28 34 -35 34 -87 0 -52 -3 -59 -36 -90 l-37 -33 -118 4
-118 5 -48 -33 -48 -33 0 -68 0 -67 28 6 c40 10 88 41 117 77 14 18 25 27 25
22 0 -6 20 -44 44 -84 l44 -74 173 2 c178 2 219 5 277 23 l34 10 -23 24 c-28
29 -53 30 -114 3 -39 -17 -63 -20 -130 -17 -106 4 -140 25 -140 84 l0 39 101
0 c117 0 105 -6 308 157 60 48 113 88 118 88 4 0 8 -9 8 -19 0 -29 24 -33 134
-21 119 13 158 23 208 57 48 32 126 43 143 20 17 -24 115 -12 110 12 -6 34 33
123 71 162 35 36 174 139 188 139 3 0 3 -21 0 -48 -6 -45 -7 -115 -5 -192 l2
-35 19 24 c11 13 20 30 20 39 0 8 3 12 7 8 4 -4 9 -46 11 -93 1 -48 7 -104 11
-125 12 -54 -8 -75 -114 -118 -103 -41 -135 -73 -119 -117 15 -44 106 -85 200
-91 68 -4 80 -8 103 -33 14 -15 46 -38 71 -51 43 -23 46 -24 63 -7 16 15 67
32 75 24 4 -4 -19 -25 -62 -55 -39 -28 -51 -59 -67 -176 -12 -90 -32 -139 -63
-157 -11 -6 -48 -14 -81 -18 -33 -3 238 -7 603 -7 364 -1 662 1 662 6 -1 12
-85 71 -119 83 -27 9 -30 15 -24 33 4 11 8 70 8 130 0 127 -22 113 175 116
119 2 126 3 127 22 3 33 14 38 104 48 85 10 178 28 256 49 47 13 99 52 108 81
3 10 22 29 41 40 19 12 32 26 28 31 -3 5 0 9 7 9 7 0 10 2 8 5 -3 2 -53 -4
-111 -14 -185 -33 -243 -38 -543 -41 -115 -1 -235 -6 -265 -11 -30 -6 -187
-10 -348 -9 -290 0 -295 0 -370 26 -92 31 -112 41 -112 55 0 5 15 2 33 -8 17
-9 41 -18 52 -20 57 -8 247 -17 469 -22 232 -6 250 -5 254 12 2 10 14 17 27
17 12 0 37 3 54 6 27 6 33 3 38 -15 4 -17 11 -21 32 -17 28 5 142 12 366 22
125 5 264 24 305 41 8 3 25 5 37 4 46 -5 131 28 153 59 23 32 23 61 0 155 -15
59 -33 77 -65 65 -13 -5 -25 -6 -28 -4 -3 3 -52 -4 -109 -15 -56 -11 -174 -27
-261 -36 -140 -14 -167 -20 -223 -48 l-63 -31 -89 13 c-88 12 -140 8 -154 -13
-5 -7 -8 -3 -8 8 0 18 -1 18 -19 2 -19 -18 -46 -13 -53 9 -2 6 -11 9 -20 8
-10 -2 -18 1 -18 6 0 10 -39 27 -52 23 -5 -1 -8 3 -8 8 0 6 -6 10 -12 9 -28
-3 -37 2 -32 16 5 11 2 13 -11 8 -16 -6 -17 -2 -12 30 l6 37 -32 -30 c-41 -38
-67 -41 -43 -5 17 26 14 45 -6 45 -7 0 -6 -6 2 -15 7 -8 9 -15 6 -15 -10 0
-32 22 -35 35 -4 12 -23 8 -32 -7 -12 -19 -30 2 -19 22 10 18 9 18 -27 4 -21
-9 -46 -23 -55 -32 -16 -13 -18 -13 -18 0 0 22 -83 128 -97 123 -6 -2 -13 5
-16 16 -7 24 -39 25 -61 0 -14 -16 -23 -18 -46 -10 -15 6 -37 20 -48 32 -22
25 -62 126 -62 159 0 15 -5 19 -19 15 -19 -5 -36 15 -23 27 3 4 6 14 7 24 1 9
5 33 8 53 6 27 3 40 -9 49 -13 11 -17 11 -23 1 -14 -22 -21 -114 -10 -127 7
-8 5 -14 -7 -18 -14 -5 -15 -25 -11 -179 4 -105 3 -156 -3 -132 -4 22 -11 105
-15 185 -7 155 1 221 46 352 12 35 22 68 23 73 1 6 6 16 10 24 7 11 5 13 -8 8
-10 -4 -20 -7 -22 -7 -2 0 -4 -7 -4 -16 0 -8 -5 -12 -10 -9 -6 3 -13 -1 -16
-9 -10 -27 -69 -20 -98 11 -21 23 -35 28 -80 29 -67 2 -76 7 -76 44 0 20 8 35
25 46 24 15 30 15 112 -11 86 -27 86 -27 112 -7 17 13 26 29 26 47 0 24 -6 30
-40 42 -58 20 -87 45 -87 77 0 28 30 59 47 48 5 -4 18 -5 28 -4 9 2 17 -2 17
-9 0 -8 6 -6 18 4 24 22 54 21 77 0 14 -14 32 -17 82 -15 39 2 63 0 63 -7 0
-17 31 0 133 74 57 41 99 79 103 93 3 12 20 33 36 47 16 14 26 25 21 26 -4 1
-104 2 -220 3 -192 1 -214 3 -230 20 -17 17 -17 18 4 12 12 -4 31 -2 43 4 11
6 20 7 20 2 0 -4 9 -8 20 -9 11 -1 20 2 20 7 0 4 9 6 19 3 12 -3 29 3 42 16
12 11 26 18 31 15 4 -3 8 0 8 7 0 9 4 8 15 -1 18 -15 187 -9 228 8 26 11 27
13 13 28 -9 8 -16 24 -16 34 0 10 -9 21 -20 25 -13 4 -25 25 -37 63 -20 68
-21 69 -55 77 -27 7 -28 6 -28 -37 0 -40 -5 -50 -46 -91 -47 -49 -81 -67 -40
-22 24 26 76 126 76 146 0 6 -8 24 -17 40 -15 25 -16 35 -5 76 7 26 18 50 24
54 6 4 7 12 4 18 -15 24 -35 8 -60 -51 -15 -35 -39 -75 -52 -89 -27 -28 -74
-134 -69 -153 16 -54 15 -67 -7 -75 -19 -7 -28 -3 -51 25 -16 19 -36 34 -45
34 -26 -1 -52 -25 -52 -48 0 -11 -4 -23 -9 -26 -14 -9 -23 183 -11 239 6 27 9
60 5 72 -6 24 12 112 26 127 19 21 7 36 -48 66 -95 50 -185 149 -149 163 17 7
110 -17 172 -43 25 -11 47 -20 49 -20 1 0 6 12 10 27 9 35 52 94 89 123 19 13
23 20 11 15 -151 -52 -191 -45 -298 55 -41 39 -77 70 -80 70 -2 0 -10 -7 -17
-15z m710 -861 c0 -2 -9 0 -20 6 -11 6 -20 13 -20 16 0 2 9 0 20 -6 11 -6 20
-13 20 -16z m-615 -224 c3 -5 1 -10 -4 -10 -6 0 -11 5 -11 10 0 6 2 10 4 10 3
0 8 -4 11 -10z m-34 -804 c-19 -76 -36 -101 -26 -36 6 39 30 100 39 100 1 0
-5 -29 -13 -64z m183 -395 c-8 -9 -13 6 -18 59 l-6 55 14 -55 c8 -30 12 -57
10 -59z m24 29 l0 -25 -8 25 c-4 14 -8 39 -8 55 l0 30 8 -30 c4 -16 8 -41 8
-55z m1742 8 c-14 -11 -24 -26 -22 -32 2 -7 0 -7 -9 1 -9 9 -5 17 17 36 16 14
31 23 34 20 3 -2 -6 -14 -20 -25z m-50 -46 c0 -22 -76 -31 -250 -30 -140 1
-168 3 -115 8 39 4 129 8 200 9 72 1 137 6 145 11 18 12 20 12 20 2z m-1700
-62 c0 -26 -3 -31 -10 -20 -5 8 -10 31 -10 50 0 26 3 31 10 20 5 -8 10 -31 10
-50z m757 -455 c62 -68 83 -109 83 -164 0 -109 -131 -131 -275 -47 -37 22
-145 130 -145 145 0 4 27 21 60 40 34 18 68 43 76 56 12 18 27 25 57 27 80 6
90 2 144 -57z"/>
<path d="M6220 3133 c-79 -70 -121 -93 -171 -93 -25 0 -72 -9 -105 -20 -32
-12 -113 -34 -179 -51 -128 -32 -188 -60 -229 -110 -31 -37 -34 -79 -7 -123
35 -56 31 -101 -12 -151 l-33 -38 17 -89 c12 -60 23 -94 36 -103 10 -9 13 -14
6 -15 -29 0 -10 -20 30 -31 40 -10 109 -43 221 -103 27 -14 56 -26 65 -26 20
0 76 34 114 69 23 21 57 71 57 83 0 2 -33 2 -74 0 -69 -4 -77 -2 -100 21 -48
48 -28 116 53 190 30 26 71 52 94 59 47 13 251 17 263 5 5 -4 8 -25 7 -47 -2
-45 -11 -41 136 -70 83 -17 110 -19 137 -10 60 20 71 79 30 166 -24 52 -49 76
-166 162 -58 42 -115 115 -105 133 7 10 91 -8 158 -32 56 -21 58 -21 72 -3 8
11 15 25 15 32 0 7 24 36 53 65 28 28 43 47 32 42 -11 -4 -45 -15 -76 -23 -82
-23 -122 -8 -213 79 -40 38 -76 69 -78 69 -3 0 -25 -17 -48 -37z"/>
<path d="M2870 3150 c20 -13 43 -13 35 0 -3 6 -16 10 -28 10 -18 0 -19 -2 -7
-10z"/>
<path d="M4673 3133 c15 -2 37 -2 50 0 12 2 0 4 -28 4 -27 0 -38 -2 -22 -4z"/>
<path d="M4790 3108 c11 -12 20 -27 20 -34 0 -7 25 -14 61 -18 68 -8 92 -1 35
9 -20 4 -39 11 -42 16 -7 11 -6 11 56 -2 35 -8 50 -15 46 -24 -5 -14 31 -28
47 -18 17 10 -46 41 -137 67 -107 32 -112 32 -86 4z"/>
<path d="M4500 3103 l-35 -14 35 6 c19 3 39 10 44 15 13 13 0 11 -44 -7z"/>
<path d="M4564 3103 c-21 -37 -6 -53 49 -53 l51 0 -34 35 c-38 39 -51 43 -66
18z"/>
<path d="M555 3100 c-11 -5 -51 -9 -88 -9 -71 -1 -136 -21 -138 -43 -1 -7 -3
-27 -5 -45 l-2 -32 53 0 c29 1 96 -2 149 -6 131 -10 150 8 105 102 -21 44 -35
50 -74 33z"/>
<path d="M5078 3103 c-10 -2 -18 -6 -18 -9 0 -12 46 -54 60 -54 9 0 21 -5 28
-12 20 -20 15 12 -8 50 -19 31 -27 34 -62 25z"/>
<path d="M2962 3088 c3 -7 17 -15 33 -16 16 -2 38 -10 49 -18 23 -16 40 -19
32 -5 -3 4 32 -4 77 -19 74 -25 83 -26 89 -12 10 26 9 34 -4 29 -7 -2 -25 0
-41 4 -19 5 -25 4 -21 -3 9 -13 -46 -2 -61 13 -7 7 -3 8 10 3 14 -5 17 -4 10
3 -15 16 -59 28 -51 14 10 -15 -14 -14 -64 4 -52 18 -63 19 -58 3z"/>
<path d="M4710 3090 c20 -13 60 -13 60 0 0 6 -17 10 -37 10 -28 0 -34 -3 -23
-10z"/>
<path d="M4505 3050 c28 -12 47 -12 40 0 -3 6 -18 10 -33 9 -24 0 -25 -1 -7
-9z"/>
<path d="M4727 3047 c-50 -15 -38 -27 28 -27 57 0 70 7 54 27 -14 15 -31 16
-82 0z"/>
<path d="M7245 3044 c-108 -20 -164 -53 -230 -135 -38 -47 -69 -74 -99 -88
-55 -24 -73 -52 -48 -74 39 -35 123 -49 154 -24 9 6 21 29 28 50 17 53 43 67
119 64 52 -2 65 1 77 17 7 11 11 29 8 41 -8 31 12 42 90 48 45 3 77 11 94 24
34 25 36 36 14 63 -24 30 -96 35 -207 14z"/>
<path d="M3842 3035 c-157 -34 -346 -125 -326 -156 7 -11 -22 -6 -61 11 -18 7
-25 14 -17 17 7 3 23 -3 34 -13 12 -11 4 3 -16 30 -21 28 -50 56 -64 63 -15 8
-30 20 -34 26 -6 9 -8 9 -8 0 0 -6 9 -18 21 -26 20 -14 10 -35 -10 -23 -5 3
-11 0 -14 -8 -3 -8 5 -19 20 -27 13 -7 31 -26 39 -41 10 -19 26 -31 47 -35 35
-8 33 -8 65 2 16 5 22 2 22 -9 0 -25 63 -146 77 -146 17 0 20 -6 42 -117 13
-65 20 -143 21 -219 1 -137 -5 -186 -31 -268 -17 -52 -17 -60 -4 -79 21 -30
19 -80 -5 -109 -22 -28 -90 -60 -165 -79 -28 -6 -61 -22 -76 -35 -14 -13 -30
-24 -36 -24 -6 0 -58 -24 -115 -54 -57 -29 -146 -72 -198 -95 -123 -55 -160
-86 -167 -140 l-6 -41 148 76 148 75 46 -17 c25 -9 47 -18 49 -19 2 -2 -6 -22
-18 -45 -65 -127 49 -184 221 -111 118 49 199 133 199 204 0 35 -19 47 -76 47
-29 0 -55 4 -58 8 -5 9 31 66 85 132 20 25 50 72 66 105 39 81 58 89 176 77
51 -5 109 -17 130 -27 31 -14 52 -16 114 -11 42 4 89 14 104 22 16 8 32 13 36
12 17 -7 47 68 48 118 0 48 1 51 16 38 22 -20 79 -127 79 -148 0 -9 -8 -16
-20 -16 -11 0 -20 -5 -20 -11 0 -6 -6 -9 -14 -6 -17 7 -51 -28 -41 -42 3 -6
-1 -14 -9 -17 -9 -3 -39 -35 -67 -71 -63 -80 -99 -98 -186 -90 -61 6 -62 6
-92 -29 -51 -57 -41 -67 73 -74 l78 -5 2 -47 c3 -72 6 -73 148 -58 135 14 199
5 218 -29 5 -10 10 -42 11 -70 l2 -51 51 0 c55 0 81 -15 111 -62 9 -15 14 -32
10 -38 -3 -5 -1 -10 5 -10 6 0 9 -8 6 -17 -17 -55 50 -54 126 2 135 99 103
338 -49 361 -24 3 -63 3 -86 -1 -23 -4 -60 -8 -82 -9 -37 -1 -40 1 -36 24 1
13 9 33 17 44 16 24 19 13 3 -15 -19 -36 -3 -43 19 -8 12 19 27 41 34 51 10
13 7 23 -16 52 l-27 37 22 18 c26 21 20 35 -22 57 -29 14 -31 14 -35 -4 -5
-16 -29 -22 -54 -12 -3 1 -8 2 -12 1 -5 0 -8 14 -8 33 0 45 21 136 32 136 13
0 9 48 -4 53 -20 7 3 39 43 59 41 22 87 23 113 3 48 -36 119 -2 166 81 26 44
31 64 29 107 -4 102 -47 164 -136 197 -101 38 -179 19 -242 -59 -18 -22 -38
-38 -43 -35 -13 8 -4 -74 10 -88 31 -31 3 -135 -38 -141 -8 -2 -21 -6 -27 -10
-22 -14 -110 -20 -117 -9 -5 8 -15 8 -32 2 -14 -6 -37 -10 -52 -10 -28 0 -97
21 -108 33 -4 4 -19 7 -34 7 -41 0 -89 20 -101 41 -6 13 -6 19 1 19 5 0 10 -4
10 -8 0 -12 47 -32 75 -32 15 0 25 6 25 14 0 8 5 18 11 22 9 5 10 -1 5 -20 -7
-29 -13 -28 111 -30 40 0 73 1 73 4 0 3 31 4 70 2 77 -4 78 -3 64 66 -5 24
-12 32 -32 34 -21 2 -29 12 -42 48 -8 25 -19 51 -23 58 -6 8 -2 12 12 12 12 0
20 -3 19 -7 -2 -5 5 -28 15 -52 22 -55 44 -44 30 15 -8 36 -13 40 -73 61 -36
13 -73 32 -84 42 -18 19 -19 19 -50 -14 -57 -61 -89 -119 -88 -158 1 -26 -1
-28 -16 -14 -9 8 -31 19 -49 25 -37 12 -73 -7 -73 -39 0 -24 -12 -24 -33 -1
-22 24 -22 88 2 212 24 128 47 196 94 276 44 74 159 185 224 215 37 17 43 23
28 26 -11 2 -56 13 -99 24 -92 22 -184 23 -274 4z m95 -767 c-3 -8 -6 -5 -6 6
-1 11 2 17 5 13 3 -3 4 -12 1 -19z m576 -595 c3 -15 1 -36 -3 -47 -7 -19 -8
-18 -15 9 -4 17 -8 35 -10 42 -4 12 4 23 16 23 3 0 9 -12 12 -27z"/>
<path d="M3315 3030 c3 -5 11 -10 16 -10 6 0 7 5 4 10 -3 6 -11 10 -16 10 -6
0 -7 -4 -4 -10z"/>
<path d="M4830 3025 c0 -8 6 -15 13 -15 7 0 30 -9 52 -20 21 -11 55 -22 74
-24 20 -2 48 -7 64 -11 32 -8 35 4 7 30 -16 14 -23 16 -32 7 -7 -7 -26 -12
-42 -12 -33 0 -96 33 -96 50 0 5 -9 10 -20 10 -11 0 -20 -7 -20 -15z"/>
<path d="M4930 3010 c8 -5 24 -10 35 -10 17 0 17 2 5 10 -8 5 -24 10 -35 10
-17 0 -17 -2 -5 -10z"/>
<path d="M3266 2986 c4 -11 45 -36 59 -36 3 0 -1 11 -7 25 -12 27 -62 38 -52
11z"/>
<path d="M5110 2990 c0 -5 5 -10 11 -10 5 0 7 5 4 10 -3 6 -8 10 -11 10 -2 0
-4 -4 -4 -10z"/>
<path d="M87 2971 c-16 -10 -41 -33 -57 -52 -28 -33 -29 -37 -30 -146 l0 -112
39 -12 c37 -11 41 -10 78 19 21 17 49 33 63 35 35 5 48 45 31 100 -7 23 -19
69 -27 102 -21 84 -45 100 -97 66z"/>
<path d="M2820 2980 c-34 -7 -34 -7 13 -9 30 0 46 3 42 9 -3 6 -9 9 -13 9 -4
-1 -23 -5 -42 -9z"/>
<path d="M2728 2973 c6 -2 18 -2 25 0 6 3 1 5 -13 5 -14 0 -19 -2 -12 -5z"/>
<path d="M2585 2950 c-3 -6 1 -7 9 -4 18 7 21 14 7 14 -6 0 -13 -4 -16 -10z"/>
<path d="M2668 2922 c4 -38 3 -39 -50 -61 -29 -13 -63 -34 -75 -48 -13 -14
-24 -20 -28 -13 -4 7 -12 7 -26 0 -19 -11 -19 -11 3 -40 16 -22 19 -33 11 -41
-6 -6 -10 -17 -9 -23 2 -6 1 -7 -2 -3 -2 5 -13 0 -24 -10 -20 -18 -20 -17 0
17 14 22 18 40 13 49 -12 18 -25 9 -60 -42 -26 -38 -27 -45 -15 -62 8 -10 36
-25 62 -31 46 -13 47 -12 77 19 21 22 23 25 5 11 -47 -39 -55 -37 -16 4 29 30
53 44 100 57 33 10 65 22 69 29 6 8 10 8 14 -1 2 -7 12 -13 20 -13 9 0 33 -5
54 -12 31 -9 39 -16 39 -35 0 -19 4 -23 19 -18 12 4 36 -5 66 -24 26 -16 60
-33 76 -36 34 -8 35 -12 12 -37 -20 -22 -12 -32 17 -23 18 6 21 13 18 36 -3
16 -1 29 3 29 14 0 76 45 88 63 10 15 8 17 -15 17 -22 0 -25 -2 -14 -15 16
-19 6 -19 -42 2 -29 13 -37 21 -32 35 6 21 1 22 -27 7 -19 -10 -20 -9 -8 13 7
13 12 26 11 30 -1 4 5 5 13 2 8 -4 15 -10 15 -16 0 -5 5 -6 11 -2 6 3 21 -5
33 -18 23 -27 88 -37 112 -17 7 6 18 8 23 5 5 -4 12 -2 16 4 6 10 -32 22 -77
24 -30 1 -36 14 -16 34 9 9 6 12 -16 12 -15 0 -25 4 -21 10 9 14 -8 12 -24 -2
-11 -11 -11 -9 -2 9 10 20 7 25 -26 47 -39 27 -57 23 -72 -16 -4 -12 -11 -14
-20 -9 -11 7 -10 15 9 41 12 17 21 32 19 34 -65 47 -79 50 -79 14 0 -11 -5
-16 -11 -13 -6 4 -17 -2 -25 -14 -18 -25 -72 -29 -80 -6 -4 8 -12 15 -20 15
-8 0 -14 6 -14 13 0 9 -3 8 -9 -2 -7 -10 -13 -11 -30 -2 -30 17 -26 29 9 25
21 -3 30 1 30 11 0 8 -6 15 -14 15 -7 0 -27 3 -43 6 -28 6 -29 5 -25 -34z
m246 -115 c-3 -9 -10 -17 -15 -17 -14 0 -22 27 -15 47 6 15 8 15 22 2 8 -9 12
-23 8 -32z m57 -75 c-13 -4 -51 25 -51 40 0 5 14 -1 32 -13 18 -13 26 -25 19
-27z"/>
<path d="M2958 2938 c12 -12 25 -19 28 -15 4 4 -1 14 -12 22 -29 22 -41 18
-16 -7z"/>
<path d="M5077 2953 c-9 -9 22 -43 40 -43 16 0 17 22 1 38 -13 13 -31 16 -41
5z"/>
<path d="M2776 2933 c-10 -24 13 -43 48 -41 l31 1 -33 4 c-49 6 -34 28 17 26
29 -1 41 2 38 10 -6 19 -94 19 -101 0z"/>
<path d="M2575 2907 c-33 -17 -62 -33 -64 -35 -3 -1 1 -8 7 -14 9 -9 18 -5 37
16 14 15 30 24 36 21 5 -4 18 2 28 14 10 11 21 18 25 14 3 -3 6 -1 6 5 0 17
-7 15 -75 -21z"/>
<path d="M5195 2930 c-4 -6 -13 -9 -21 -6 -9 3 -14 -1 -14 -14 0 -10 9 -22 20
-25 11 -3 20 -11 20 -16 0 -6 5 -7 11 -4 6 4 8 14 4 23 -3 8 -1 18 5 22 7 5 6
11 -4 19 -10 9 -16 9 -21 1z"/>
<path d="M2063 2894 c-15 -15 -17 -34 -4 -34 8 0 24 41 18 46 -1 1 -8 -4 -14
-12z"/>
<path d="M4625 2900 c-16 -7 -17 -9 -3 -9 9 -1 20 4 23 9 7 11 7 11 -20 0z"/>
<path d="M4735 2880 c3 -5 8 -10 11 -10 2 0 4 5 4 10 0 6 -5 10 -11 10 -5 0
-7 -4 -4 -10z"/>
<path d="M4488 2873 c7 -3 16 -2 19 1 4 3 -2 6 -13 5 -11 0 -14 -3 -6 -6z"/>
<path d="M2430 2854 c-11 -12 -10 -18 5 -32 17 -16 17 -16 7 3 -8 15 -6 22 6
32 10 7 12 13 6 13 -6 0 -17 -7 -24 -16z"/>
<path d="M4550 2857 c-57 -11 -65 -15 -68 -36 -5 -32 11 -46 35 -31 16 10 16
11 1 6 -23 -7 -24 19 -2 28 30 11 59 6 71 -13 11 -18 8 -20 -38 -31 -27 -7
-59 -10 -70 -7 -22 6 -59 -10 -72 -30 -4 -7 -16 -13 -26 -13 -10 0 -31 -17
-47 -37 -15 -21 -31 -40 -34 -43 -21 -18 -40 -63 -35 -83 5 -17 -1 -32 -22
-54 l-29 -31 39 -12 c21 -6 45 -14 52 -16 7 -3 22 10 33 28 49 77 90 129 94
118 2 -7 15 -6 43 3 33 12 40 19 38 38 l-3 24 20 -24 c18 -21 25 -23 53 -15
18 6 37 20 44 34 12 24 13 24 13 -13 0 -38 0 -38 21 -19 20 19 20 19 50 -10
16 -16 29 -34 29 -40 0 -6 7 -7 16 -4 12 5 14 1 8 -17 -6 -21 -6 -21 12 -5 25
22 41 11 40 -24 -1 -16 1 -28 5 -28 4 0 10 -12 13 -26 7 -25 8 -25 31 -10 35
23 42 20 17 -7 -27 -29 -15 -53 22 -43 19 5 26 3 26 -9 0 -8 5 -15 11 -15 6 0
8 8 5 18 -4 13 3 25 24 40 16 12 33 22 39 22 10 0 24 30 13 30 -4 0 -29 20
-57 45 -36 33 -55 43 -70 39 -14 -5 -8 6 20 34 65 65 101 105 88 98 -7 -4 -13
-2 -13 4 0 6 -8 14 -17 17 -10 4 -36 19 -58 34 -42 28 -73 31 -99 10 -27 -22
-18 -2 12 26 15 15 22 23 16 20 -7 -4 -26 -2 -43 4 -24 8 -35 8 -46 -1 -13
-11 -14 -10 -10 2 4 10 -2 17 -17 22 -45 12 -58 7 -58 -21 0 -31 -8 -27 -13 8
-5 29 -20 31 -107 16z m86 -23 c-3 -9 -6 -23 -6 -32 0 -12 -4 -9 -13 8 -9 17
-10 27 -3 32 18 13 28 9 22 -8z m209 -164 c10 -11 15 -23 12 -27 -8 -7 -47 25
-47 39 0 14 16 9 35 -12z m52 -19 c0 -11 -5 -18 -9 -15 -4 3 -5 11 -1 19 7 21
12 19 10 -4z m33 -5 c0 -3 -4 -8 -10 -11 -5 -3 -10 -1 -10 4 0 6 5 11 10 11 6
0 10 -2 10 -4z m-620 -116 c0 -5 -5 -10 -11 -10 -5 0 -7 5 -4 10 3 6 8 10 11
10 2 0 4 -4 4 -10z"/>
<path d="M4790 2860 c8 -5 26 -9 40 -9 23 0 23 1 5 9 -11 5 -29 9 -40 9 -17 1
-17 -1 -5 -9z"/>
<path d="M4409 2843 c-13 -16 -12 -17 4 -4 16 13 21 21 13 21 -2 0 -10 -8 -17
-17z"/>
<path d="M5230 2850 l-25 -6 33 -17 c24 -13 37 -15 51 -7 14 7 21 6 25 -3 3
-6 5 -3 3 8 -2 22 -47 35 -87 25z"/>
<path d="M2404 2827 c4 -12 -6 -30 -29 -54 -19 -20 -35 -42 -35 -50 0 -7 -3
-12 -7 -12 -22 4 -25 -3 -7 -16 22 -17 38 -20 29 -5 -3 6 -1 10 4 10 6 0 11 9
11 20 0 10 8 24 19 29 22 12 33 60 19 81 -8 12 -8 12 -4 -3z"/>
<path d="M4440 2831 c0 -6 -24 -22 -52 -36 -56 -28 -79 -45 -62 -45 6 0 15 5
20 10 6 6 20 12 32 15 31 6 84 44 77 56 -8 12 -15 12 -15 0z"/>
<path d="M4895 2820 c8 -13 66 -43 71 -37 5 5 -58 47 -70 47 -4 0 -4 -5 -1
-10z"/>
<path d="M3507 2763 c-4 -6 2 -18 13 -28 23 -21 27 -8 7 20 -8 11 -16 14 -20
8z"/>
<path d="M2120 2750 c-10 -6 -11 -12 -5 -19 6 -6 22 -3 45 9 l35 19 -30 0
c-16 1 -37 -4 -45 -9z"/>
<path d="M4223 2673 c-43 -68 -73 -131 -73 -153 0 -4 10 -11 23 -17 21 -10 22
-8 21 24 -1 19 1 32 4 29 3 -4 21 26 40 66 19 40 41 81 49 90 14 16 11 38 -7
38 -4 0 -30 -35 -57 -77z"/>
<path d="M5060 2714 c1 -12 39 -61 40 -51 0 5 -9 20 -20 34 -11 14 -20 22 -20
17z"/>
<path d="M2310 2681 c0 -5 12 -17 28 -26 l27 -18 -24 27 c-26 28 -31 31 -31
17z"/>
<path d="M5001 2676 c-8 -9 -20 -16 -27 -16 -21 0 -17 -18 6 -25 11 -3 20 -9
20 -13 0 -15 91 -102 106 -102 8 0 24 5 34 10 18 10 17 13 -21 47 -30 27 -43
33 -51 25 -8 -8 -15 -9 -25 -1 -18 15 -17 32 2 25 19 -7 20 10 2 21 -8 4 -18
16 -24 26 -9 16 -11 17 -22 3z"/>
<path d="M3997 2663 c-12 -11 -8 -23 7 -23 7 0 19 7 26 15 10 12 9 15 -7 15
-11 0 -23 -3 -26 -7z"/>
<path d="M2372 2617 c-6 -7 -9 -23 -5 -35 3 -12 0 -35 -5 -51 -8 -21 -8 -33 0
-37 15 -9 26 13 33 69 8 52 -4 78 -23 54z"/>
<path d="M2440 2578 c0 -7 -3 -30 -6 -50 -5 -30 -3 -38 9 -38 17 0 42 63 33
85 -7 18 -36 20 -36 3z"/>
<path d="M3220 2580 c-8 -5 -12 -11 -9 -14 2 -3 11 -1 19 4 8 5 12 11 9 14 -2
3 -11 1 -19 -4z"/>
<path d="M6855 2573 c-77 -40 -125 -121 -95 -158 18 -21 74 -29 115 -15 20 7
39 9 43 6 3 -4 1 -28 -6 -54 -15 -57 -69 -111 -139 -137 -26 -10 -100 -44
-164 -76 -109 -55 -211 -89 -271 -89 -33 0 -32 -1 -13 36 31 61 15 116 -40
134 -39 13 -125 -4 -195 -40 -39 -20 -110 -83 -110 -98 0 -4 -19 -13 -42 -19
-60 -16 -95 -57 -108 -122 -18 -95 -18 -95 53 -113 141 -36 212 -77 205 -117
-2 -9 -24 -23 -53 -32 -43 -14 -47 -17 -27 -23 21 -7 26 -20 23 -57 -2 -15 4
-15 61 -2 49 12 77 13 126 4 97 -15 192 -71 192 -113 0 -27 -55 -56 -119 -63
-118 -13 -140 -24 -226 -111 -86 -86 -95 -91 -235 -112 -36 -6 -73 -13 -82
-17 -14 -6 -18 -2 -18 15 0 59 -59 84 -82 34 -10 -21 -9 -35 5 -74 19 -53 15
-76 -14 -85 -10 -4 -19 -12 -19 -19 0 -19 -45 -36 -94 -36 -40 0 -44 -3 -66
-42 -12 -24 -33 -54 -45 -68 -64 -73 -39 -87 122 -67 110 14 133 20 177 48 60
38 137 50 164 27 10 -9 33 -14 56 -13 l40 2 13 58 c17 75 55 121 187 227 58
45 110 95 117 110 21 50 72 88 117 88 10 0 60 22 112 50 110 57 179 124 203
195 19 54 11 83 -27 108 -25 17 -28 16 -81 -14 -34 -19 -67 -48 -85 -74 -33
-48 -46 -55 -100 -55 -31 0 -43 6 -66 33 -24 29 -32 32 -76 30 -65 -3 -92 21
-77 67 15 43 44 46 133 15 74 -26 77 -26 106 -8 31 18 50 58 34 73 -5 4 -26
13 -46 19 -91 30 -113 83 -55 138 82 78 177 115 341 132 118 12 198 46 234
100 24 37 29 113 12 186 -9 39 -8 41 30 73 39 33 69 100 55 122 -10 17 -166
11 -200 -7z"/>
<path d="M2661 2567 c-37 -18 -61 -67 -68 -140 -7 -76 7 -107 46 -107 22 0 64
-71 63 -106 -1 -18 0 -34 2 -34 2 0 25 10 52 21 111 48 156 106 156 199 0 44
-6 69 -23 96 -40 66 -164 104 -228 71z"/>
<path d="M2495 2540 c-4 -12 -5 -24 -2 -27 3 -2 8 5 12 17 4 12 5 24 2 27 -3
2 -8 -5 -12 -17z"/>
<path d="M2547 2553 c-4 -3 -7 -11 -7 -17 0 -6 5 -5 12 2 6 6 9 14 7 17 -3 3
-9 2 -12 -2z"/>
<path d="M2567 2509 c-10 -26 -13 -47 -7 -70 l8 -34 1 38 c1 21 6 47 12 58 6
11 8 25 6 32 -2 7 -11 -4 -20 -24z"/>
<path d="M3027 2493 c7 -45 23 -68 23 -32 0 34 -11 69 -21 69 -4 0 -5 -17 -2
-37z"/>
<path d="M3240 2520 c-13 -8 -12 -10 3 -10 9 0 17 5 17 10 0 12 -1 12 -20 0z"/>
<path d="M2 2306 c-2 -202 -1 -209 16 -193 10 10 26 17 36 17 28 0 53 18 59
42 10 37 45 68 76 68 16 0 73 -23 126 -51 85 -45 103 -51 141 -46 57 6 74 21
74 67 0 44 -49 123 -94 152 -28 17 -43 19 -150 13 -106 -6 -129 -4 -197 16
l-78 22 -4 51 c-2 28 -4 -43 -5 -158z"/>
<path d="M5194 2483 c2 -10 7 -18 12 -18 5 0 10 8 12 18 2 10 -3 17 -11 17 -9
0 -14 -8 -13 -17z"/>
<path d="M3610 2480 c0 -5 5 -10 11 -10 5 0 7 5 4 10 -3 6 -8 10 -11 10 -2 0
-4 -4 -4 -10z"/>
<path d="M2520 2469 c0 -5 5 -7 10 -4 6 3 10 8 10 11 0 2 -4 4 -10 4 -5 0 -10
-5 -10 -11z"/>
<path d="M5142 2450 c0 -14 3 -34 8 -45 l9 -20 -1 20 c0 11 -4 31 -8 45 l-8
25 0 -25z"/>
<path d="M2490 2450 c0 -5 5 -10 10 -10 6 0 10 5 10 10 0 6 -4 10 -10 10 -5 0
-10 -4 -10 -10z"/>
<path d="M2441 2410 c6 -16 15 -30 21 -30 5 0 6 -6 2 -12 -5 -10 -4 -10 5 -2
8 8 7 18 -5 42 -20 40 -36 42 -23 2z"/>
<path d="M3620 2425 c-10 -12 -16 -13 -27 -3 -24 20 -39 -13 -27 -59 5 -18 14
-23 40 -23 l34 0 -3 50 c-1 27 -3 50 -3 50 -1 0 -7 -7 -14 -15z"/>
<path d="M3046 2421 c-4 -7 -5 -15 -2 -18 9 -9 19 4 14 18 -4 11 -6 11 -12 0z"/>
<path d="M3320 2419 c0 -5 5 -7 10 -4 6 3 10 8 10 11 0 2 -4 4 -10 4 -5 0 -10
-5 -10 -11z"/>
<path d="M5210 2423 c0 -5 7 -18 15 -29 15 -18 15 -18 13 5 -3 23 -28 44 -28
24z"/>
<path d="M5248 2405 c2 -14 8 -28 13 -31 10 -6 11 2 3 34 -9 30 -22 28 -16 -3z"/>
<path d="M3037 2376 c-4 -10 -5 -21 -2 -24 9 -9 17 6 13 25 -3 17 -4 17 -11
-1z"/>
<path d="M2560 2368 c0 -7 5 -20 10 -28 8 -12 10 -11 10 7 0 12 -4 25 -10 28
-5 3 -10 0 -10 -7z"/>
<path d="M4925 2370 c-3 -5 -1 -10 4 -10 6 0 11 5 11 10 0 6 -2 10 -4 10 -3 0
-8 -4 -11 -10z"/>
<path d="M3320 2350 c0 -5 5 -10 10 -10 6 0 10 5 10 10 0 6 -4 10 -10 10 -5 0
-10 -4 -10 -10z"/>
<path d="M2486 2310 c9 -16 20 -32 26 -36 6 -4 6 2 -1 15 -7 11 -9 21 -5 21 3
0 1 7 -6 15 -21 25 -29 17 -14 -15z"/>
<path d="M3016 2317 c-10 -14 -14 -16 -10 -4 4 9 2 17 -4 17 -15 0 -21 -24 -8
-36 15 -14 56 0 56 20 0 25 -17 27 -34 3z"/>
<path d="M3609 2308 c-7 -13 -13 -46 -13 -74 -1 -45 -3 -51 -18 -43 -9 5 -25
9 -36 9 -27 0 -38 46 -17 70 12 13 13 20 5 25 -15 9 -50 -29 -50 -55 0 -11 -6
-20 -14 -20 -10 0 -17 -16 -22 -45 -3 -25 -10 -48 -15 -51 -5 -2 -13 -22 -19
-43 -7 -28 -26 -53 -67 -88 -127 -109 -142 -124 -136 -140 5 -13 2 -15 -11
-10 -15 6 -17 3 -13 -13 3 -11 1 -20 -5 -20 -5 0 -12 9 -15 20 -4 16 -9 18
-24 9 -10 -5 -19 -6 -19 -1 0 5 11 15 25 22 27 14 33 36 13 42 -7 3 -18 0 -24
-6 -6 -6 -21 -18 -33 -26 -26 -18 -29 -52 -3 -43 13 5 14 3 6 -6 -7 -7 -20
-11 -29 -9 -23 4 -31 48 -10 48 17 0 20 16 4 25 -6 4 -16 0 -22 -8 -7 -8 -30
-18 -51 -22 -22 -4 -63 -18 -90 -32 -28 -15 -64 -27 -81 -29 -16 -1 -31 -3
-32 -4 -4 -3 -14 -6 -51 -15 -18 -4 -35 -11 -37 -16 -3 -4 -31 -5 -62 -2 l-58
6 29 -34 c16 -19 35 -33 43 -31 7 2 13 -2 13 -8 0 -5 -3 -10 -7 -10 -5 0 -8
-30 -9 -68 0 -55 -6 -78 -33 -130 -18 -35 -31 -66 -28 -68 2 -2 25 -1 51 2 52
8 52 8 87 107 18 53 21 72 12 86 -10 16 -5 20 46 34 32 9 77 19 99 23 29 4 39
10 35 20 -3 8 -1 14 5 14 6 0 12 -5 14 -11 6 -17 60 2 66 23 3 13 7 16 12 8 9
-15 116 38 168 83 20 18 49 38 65 45 15 6 27 18 27 25 0 15 31 47 45 47 4 0 2
-7 -5 -15 -10 -12 -9 -15 6 -15 16 0 16 -2 4 -10 -23 -14 -8 -19 39 -13 33 5
53 15 80 43 20 20 45 42 57 48 37 20 96 148 110 242 8 47 16 95 18 108 3 12 1
22 -4 22 -5 0 -15 -10 -21 -22z m-114 -118 c3 -5 2 -10 -4 -10 -5 0 -13 5 -16
10 -3 6 -2 10 4 10 5 0 13 -4 16 -10z m-91 -269 c3 -5 -1 -12 -10 -15 -20 -8
-29 -1 -19 13 8 13 22 14 29 2z m-374 -95 c0 -3 -4 -8 -10 -11 -5 -3 -10 -1
-10 4 0 6 5 11 10 11 6 0 10 -2 10 -4z m-247 -110 c3 -8 -2 -16 -12 -19 -14
-3 -17 0 -14 14 6 22 19 25 26 5z m44 -8 c-3 -8 -6 -5 -6 6 -1 11 2 17 5 13 3
-3 4 -12 1 -19z m60 -10 c-3 -7 -5 -2 -5 12 0 14 2 19 5 13 2 -7 2 -19 0 -25z
m63 20 c0 -9 4 -8 10 2 8 12 10 11 10 -7 0 -28 -16 -30 -30 -3 -7 14 -7 20 0
20 5 0 10 -6 10 -12z"/>
<path d="M5376 2314 c-5 -14 -4 -15 9 -4 8 7 15 11 16 9 7 -38 7 -49 0 -49 -5
0 -12 6 -14 13 -3 6 -6 2 -6 -10 -1 -13 4 -23 9 -23 6 0 10 -16 10 -35 0 -27
-4 -35 -17 -35 -15 0 -16 -2 -3 -10 23 -15 27 -12 35 18 14 50 15 90 5 116
-11 29 -35 34 -44 10z"/>
<path d="M7317 2305 c-63 -25 -84 -54 -103 -138 -22 -95 -46 -120 -150 -154
-53 -17 -95 -38 -114 -56 -49 -48 -51 -134 -5 -204 12 -17 25 -23 52 -23 33 0
44 8 93 60 50 54 60 60 95 60 73 0 125 47 143 128 14 61 33 85 107 133 l65 42
0 77 c0 75 -1 78 -28 89 -37 15 -95 10 -155 -14z"/>
<path d="M3316 2311 c-18 -7 -18 -8 4 -14 27 -7 39 -1 24 12 -5 5 -18 5 -28 2z"/>
<path d="M4924 2309 c-11 -18 -12 -69 -1 -69 4 0 19 12 33 28 24 25 24 27 8
31 -11 2 -22 8 -25 13 -4 6 -10 5 -15 -3z"/>
<path d="M3266 2237 c-15 -19 -26 -41 -26 -50 0 -11 -5 -14 -17 -10 -16 6 -16
4 -5 -9 11 -14 11 -22 -3 -47 -8 -17 -20 -31 -26 -31 -19 0 -38 -27 -33 -48 4
-13 -2 -25 -16 -35 -15 -11 -18 -17 -9 -22 7 -5 17 0 25 11 7 10 18 24 24 31
5 7 7 19 4 27 -4 10 -1 16 7 16 18 0 63 66 54 79 -3 6 1 11 10 11 9 0 14 4 11
9 -9 14 4 41 20 41 17 0 19 20 2 20 -8 1 -6 6 5 14 19 15 22 26 8 26 -6 0 -21
-15 -35 -33z"/>
<path d="M3540 2245 c0 -19 5 -25 23 -24 12 0 16 3 10 6 -7 2 -13 13 -13 24 0
10 -4 19 -10 19 -5 0 -10 -11 -10 -25z"/>
<path d="M3387 2234 c-8 -8 1 -24 14 -24 5 0 9 7 9 15 0 15 -12 20 -23 9z"/>
<path d="M777 2205 c-22 -7 -49 -23 -62 -35 -26 -24 -23 -51 12 -132 l21 -46
-64 -32 c-74 -36 -104 -70 -104 -116 0 -31 6 -38 70 -79 39 -25 70 -51 70 -59
0 -16 -24 -28 -120 -60 -51 -16 -66 -26 -68 -43 -5 -32 30 -38 112 -19 37 9
87 16 112 16 92 0 128 43 106 126 -17 62 -9 74 48 74 33 0 50 5 54 15 10 27
-4 42 -50 55 -24 7 -47 17 -50 22 -3 5 15 27 40 49 49 43 59 69 26 69 -18 0
-19 5 -13 60 7 72 -8 115 -48 135 -34 18 -43 18 -92 0z"/>
<path d="M5371 2204 c0 -11 3 -14 6 -6 3 7 2 16 -1 19 -3 4 -6 -2 -5 -13z"/>
<path d="M4896 2184 c-5 -12 -2 -15 10 -10 8 3 18 6 20 6 2 0 4 5 4 10 0 16
-27 11 -34 -6z"/>
<path d="M2885 2180 c-4 -6 -11 -8 -16 -4 -12 7 -94 -45 -85 -53 3 -3 12 0 20
6 8 7 25 13 38 15 23 2 78 46 59 46 -6 0 -13 -5 -16 -10z"/>
<path d="M3375 2180 c-19 -7 -19 -8 -2 -15 19 -8 31 -2 26 13 -2 5 -13 6 -24
2z"/>
<path d="M3364 2145 c3 -9 0 -15 -9 -15 -17 0 -20 -16 -4 -25 6 -4 17 1 24 11
19 25 18 31 -1 38 -12 4 -15 2 -10 -9z"/>
<path d="M5354 2151 c3 -5 -1 -14 -9 -21 -9 -7 -27 -36 -41 -64 -14 -28 -40
-72 -59 -97 -51 -71 -53 -85 -9 -92 20 -4 44 -1 54 6 24 14 110 190 110 223 0
13 5 24 12 24 6 0 3 7 -8 15 -21 16 -59 21 -50 6z"/>
<path d="M3298 2057 c-21 -26 -23 -34 -12 -44 10 -10 18 -6 38 18 14 17 26 37
26 45 0 25 -27 15 -52 -19z m22 -11 c0 -2 -8 -10 -17 -17 -16 -13 -17 -12 -4
4 13 16 21 21 21 13z"/>
<path d="M4598 2083 c7 -3 16 -2 19 1 4 3 -2 6 -13 5 -11 0 -14 -3 -6 -6z"/>
<path d="M3379 2063 c-13 -16 -12 -17 4 -4 16 13 21 21 13 21 -2 0 -10 -8 -17
-17z"/>
<path d="M0 1767 c0 -170 3 -307 8 -305 46 24 91 40 134 47 29 5 45 9 36 10
-13 1 -18 10 -18 30 0 35 17 54 72 82 36 18 38 22 25 37 -7 9 -27 33 -43 51
-16 19 -45 53 -65 75 -28 32 -37 52 -41 89 -4 36 -14 57 -36 80 -16 18 -39 50
-50 72 l-21 40 -1 -308z"/>
<path d="M2470 2034 c-19 -7 -49 -13 -66 -13 -38 -1 -66 -27 -39 -37 9 -4 28
-1 43 7 15 7 32 15 37 18 6 2 1 -5 -9 -17 -26 -30 -13 -39 21 -14 38 27 66 59
56 64 -4 2 -24 -1 -43 -8z"/>
<path d="M5455 1990 c-3 -5 -1 -10 4 -10 6 0 11 5 11 10 0 6 -2 10 -4 10 -3 0
-8 -4 -11 -10z"/>
<path d="M3222 1963 c-12 -15 -22 -30 -22 -34 0 -12 38 2 55 21 13 14 13 19 2
28 -11 9 -18 6 -35 -15z"/>
<path d="M2297 1962 c-10 -10 -17 -22 -17 -25 0 -11 38 -8 45 3 3 6 15 10 27
10 17 0 18 2 8 15 -17 20 -43 19 -63 -3z"/>
<path d="M2936 1923 c-31 -27 -33 -33 -6 -26 11 3 20 9 20 14 0 5 8 9 18 9 10
0 27 6 37 14 17 12 16 13 -13 12 -17 0 -42 -11 -56 -23z"/>
<path d="M2255 1920 c-3 -5 -1 -10 4 -10 6 0 11 5 11 10 0 6 -2 10 -4 10 -3 0
-8 -4 -11 -10z"/>
<path d="M2830 1910 c-12 -8 -12 -10 3 -16 20 -7 47 1 47 16 0 12 -30 13 -50
0z"/>
<path d="M4979 1858 c-7 -12 -12 -38 -13 -57 -1 -28 -6 -36 -23 -41 l-23 -5
20 -30 c11 -16 27 -30 37 -30 9 0 18 -6 21 -13 2 -6 -1 -12 -7 -12 -7 0 -7 -8
0 -26 8 -24 8 -25 -6 -14 -8 7 -15 17 -15 23 0 23 -87 95 -128 106 -23 7 -42
17 -42 23 0 5 -9 8 -20 5 -12 -3 -20 0 -20 8 0 16 -35 26 -48 13 -12 -12 -35
-1 -27 13 9 14 -28 10 -47 -5 -10 -7 -18 -20 -18 -29 0 -9 -7 -20 -16 -25 -16
-9 -16 -11 1 -33 17 -24 17 -24 12 -1 -7 29 0 28 25 -3 21 -27 44 -34 34 -10
-4 12 2 14 27 12 18 -1 37 -7 42 -13 11 -12 63 -28 81 -25 7 1 38 -27 70 -61
33 -34 77 -79 99 -99 l39 -38 -33 -12 c-27 -9 -32 -15 -26 -33 3 -11 11 -47
18 -79 11 -55 13 -58 50 -68 21 -5 46 -13 55 -16 13 -5 15 -4 6 8 -5 8 -10 21
-9 29 0 8 -2 17 -6 20 -3 3 -11 30 -17 60 -7 30 -14 63 -16 72 -6 24 6 29 51
22 l38 -6 1 -61 c1 -94 18 -168 44 -189 l22 -18 -28 5 c-26 5 -31 2 -46 -33
-23 -50 -23 -64 2 -80 13 -8 20 -9 20 -1 0 11 50 82 63 87 4 2 4 8 1 14 -5 7
2 9 20 4 36 -9 33 -1 -9 18 -28 14 -35 23 -35 46 0 17 5 30 12 30 6 0 4 6 -7
13 -17 13 -17 14 6 22 l24 8 -22 4 c-20 4 -23 11 -23 46 0 47 15 83 24 57 2
-8 7 -22 9 -30 3 -8 6 0 6 18 1 26 -3 32 -21 33 -13 1 -27 1 -31 0 -5 -1 -6 3
-2 9 3 5 13 10 21 10 10 0 2 13 -20 34 -20 18 -36 39 -36 45 0 7 -4 10 -9 7
-5 -3 -12 6 -16 21 -3 16 -11 31 -16 34 -6 3 -11 14 -13 23 -1 10 -7 21 -12
24 -16 12 -35 53 -29 63 4 5 3 9 -2 8 -32 -8 -48 39 -29 83 16 37 -16 51 -35
16z"/>
<path d="M5400 1874 c0 -12 50 -74 60 -74 5 0 14 9 20 20 8 16 6 22 -12 34
-29 18 -68 30 -68 20z"/>
<path d="M2464 1753 c-29 -61 -29 -83 1 -43 25 34 26 34 20 8 -5 -18 -3 -28 4
-28 6 0 11 6 11 13 0 6 3 23 7 36 5 18 3 22 -6 16 -10 -5 -11 -2 -6 14 11 35
-12 23 -31 -16z"/>
<path d="M4620 1693 c0 -6 8 -17 18 -24 16 -13 16 -13 2 6 -8 11 -16 22 -17
24 -2 2 -3 0 -3 -6z"/>
<path d="M2421 1656 c-16 -20 -15 -22 22 -31 17 -5 27 -3 27 4 0 6 -6 11 -14
11 -8 0 -16 7 -18 17 -3 15 -4 15 -17 -1z"/>
<path d="M7236 1645 c-88 -31 -126 -78 -135 -168 -8 -73 -18 -90 -71 -117 -69
-35 -92 -105 -45 -136 29 -19 94 -29 130 -20 30 8 55 57 55 109 0 47 18 95 40
107 10 6 47 10 82 10 79 0 133 28 165 85 41 73 26 113 -52 134 -54 15 -122 13
-169 -4z"/>
<path d="M2410 1570 c19 -13 30 -13 30 0 0 6 -10 10 -22 10 -19 0 -20 -2 -8
-10z"/>
<path d="M5406 1528 c-3 -13 -6 -57 -6 -98 0 -85 -17 -200 -31 -215 -5 -5 -9
-18 -9 -28 0 -16 -5 -18 -27 -12 -21 5 -31 1 -45 -17 -16 -20 -17 -20 -11 -3
6 17 4 18 -9 7 -10 -8 -13 -22 -10 -39 4 -21 2 -25 -11 -20 -9 3 -19 2 -22 -3
-4 -6 1 -10 11 -10 14 0 12 -6 -10 -32 -14 -18 -33 -49 -41 -68 -15 -32 -15
-36 1 -47 28 -20 8 -27 -26 -9 -30 15 -34 14 -73 -7 -23 -12 -43 -25 -45 -29
-2 -5 -11 -8 -21 -8 -9 0 -21 -4 -26 -9 -9 -8 -107 -62 -172 -95 -13 -6 -23
-18 -23 -26 -1 -9 -6 -6 -14 9 -12 21 -22 25 -76 28 -50 3 -65 0 -75 -14 -12
-16 -14 -16 -31 1 -13 13 -27 17 -51 13 -18 -3 -31 -2 -29 2 3 5 -12 17 -34
27 -22 10 -40 22 -40 26 0 11 -56 38 -80 38 -12 0 -19 4 -16 9 6 9 -74 84 -82
77 -5 -6 -45 12 -134 62 -77 43 -78 44 -118 128 -29 61 -49 90 -72 104 -41 25
-49 25 -55 0 -3 -11 -9 -20 -13 -20 -5 0 -6 -21 -4 -47 7 -68 7 -75 -5 -136
-7 -41 -7 -65 3 -98 7 -24 13 -89 14 -143 1 -96 0 -100 -29 -128 -16 -16 -29
-32 -29 -36 0 -13 169 -169 204 -187 25 -14 36 -26 36 -42 0 -28 31 -45 78
-42 20 1 73 -9 117 -23 44 -14 99 -28 123 -31 23 -3 49 -10 56 -16 7 -6 28
-46 46 -89 24 -57 33 -93 34 -139 1 -40 5 -63 13 -63 17 0 63 59 84 108 23 52
23 62 5 62 -8 0 -28 12 -45 26 -54 45 -36 104 31 104 56 0 278 70 333 105 23
14 100 31 190 40 33 3 75 11 92 17 l33 12 -22 23 c-25 26 -63 30 -112 9 -49
-20 -113 -29 -121 -17 -3 6 -2 11 3 11 5 0 42 25 82 55 40 30 71 55 67 55 -3
0 7 14 23 30 17 17 30 33 30 36 0 2 -26 -9 -57 -25 -195 -99 -350 -135 -513
-121 -14 1 22 8 80 15 134 15 232 39 295 71 120 62 181 98 192 114 7 10 33 31
57 47 46 31 146 134 146 150 0 6 13 28 28 49 27 37 44 97 44 154 0 14 5 28 10
31 14 9 18 129 7 192 -5 28 -20 62 -34 79 -15 17 -29 44 -32 59 -7 35 -18 37
-27 7z m34 -396 c0 -13 -3 -12 -15 4 -19 25 -19 40 0 24 8 -7 15 -20 15 -28z
m-110 18 c0 -5 -4 -10 -10 -10 -5 0 -10 5 -10 10 0 6 5 10 10 10 6 0 10 -4 10
-10z m100 -44 c0 -3 -4 -8 -10 -11 -5 -3 -10 -1 -10 4 0 6 5 11 10 11 6 0 10
-2 10 -4z m-156 -76 c-22 -42 -34 -46 -16 -5 9 19 19 35 23 35 4 0 1 -13 -7
-30z m-952 -173 c-6 -12 -42 23 -59 58 -14 28 -13 27 24 -10 21 -22 37 -44 35
-48z m-297 43 c3 -5 1 -10 -4 -10 -6 0 -11 5 -11 10 0 6 2 10 4 10 3 0 8 -4
11 -10z m90 -96 c21 -24 117 -94 127 -94 6 0 32 -13 57 -28 54 -34 164 -77
239 -93 62 -15 70 -34 10 -24 -68 10 -135 34 -253 91 -113 54 -191 116 -244
194 l-24 35 38 -35 c22 -19 44 -40 50 -46z m465 -24 c0 -5 -4 -10 -10 -10 -5
0 -10 5 -10 10 0 6 5 10 10 10 6 0 10 -4 10 -10z"/>
<path d="M5241 1524 c0 -11 3 -14 6 -6 3 7 2 16 -1 19 -3 4 -6 -2 -5 -13z"/>
<path d="M5450 1521 c0 -12 40 -41 57 -41 14 0 18 26 6 33 -20 11 -63 16 -63
8z"/>
<path d="M290 1498 c91 -20 99 -31 75 -93 -8 -20 -8 -20 13 -1 29 25 28 62 0
80 -13 7 -48 16 -78 19 l-55 5 45 -10z"/>
<path d="M4415 1450 c3 -10 1 -30 -6 -42 -10 -19 -8 -19 15 5 23 25 24 30 12
43 -20 20 -28 18 -21 -6z"/>
<path d="M662 1410 c-23 -10 -57 -30 -75 -44 -17 -13 -70 -43 -116 -65 -128
-62 -234 -151 -216 -181 16 -25 112 -6 152 31 11 12 41 23 65 26 33 5 52 15
83 47 24 25 73 57 120 79 87 41 135 80 135 109 0 15 -8 18 -52 18 -31 0 -71
-9 -96 -20z"/>
<path d="M1104 1414 c3 -9 6 -18 6 -20 0 -10 27 -2 50 16 l25 20 -44 0 c-35 0
-42 -3 -37 -16z"/>
<path d="M5622 1405 l11 -24 31 21 c17 12 33 23 35 25 2 2 -17 3 -42 3 -46 0
-46 0 -35 -25z"/>
<path d="M2334 1382 c-31 -3 -32 -4 -27 -43 4 -25 2 -39 -6 -39 -6 0 -11 -5
-11 -10 0 -5 5 -9 12 -7 7 1 12 -3 13 -10 0 -22 13 -24 56 -12 37 10 41 13 24
20 l-20 8 20 2 c11 1 3 5 -18 8 -40 6 -50 23 -20 31 14 4 17 11 13 30 -4 21
-10 25 -36 22z m13 -34 c-3 -8 -6 -5 -6 6 -1 11 2 17 5 13 3 -3 4 -12 1 -19z"/>
<path d="M3891 1353 c0 -10 4 -27 9 -38 7 -18 9 -18 15 -3 4 9 5 25 3 34 -4
24 -28 30 -27 7z"/>
<path d="M2690 1320 c4 -28 0 -40 -14 -40 -9 0 -12 -7 -9 -20 7 -26 15 -25 43
5 l24 25 -23 23 c-16 15 -22 18 -21 7z"/>
<path d="M2785 1300 c-7 -12 20 -42 29 -33 3 4 6 1 6 -5 0 -7 7 -12 15 -12 21
0 19 13 -8 38 -26 25 -33 27 -42 12z"/>
<path d="M3355 1290 c-4 -7 3 -8 22 -4 38 9 42 14 10 14 -14 0 -29 -5 -32 -10z"/>
<path d="M4392 1260 c0 -14 2 -19 5 -12 2 6 2 18 0 25 -3 6 -5 1 -5 -13z"/>
<path d="M2300 1227 c0 -39 39 -131 71 -170 l30 -36 33 20 c54 32 61 74 9 50
-29 -13 -33 -10 -60 51 -10 24 -10 29 8 38 27 15 24 33 -5 26 -32 -8 -41 5
-14 21 22 12 22 12 -9 13 -17 0 -38 3 -47 6 -12 5 -16 0 -16 -19z"/>
<path d="M3094 1236 c-34 -7 -78 -10 -98 -8 -33 4 -36 2 -36 -23 0 -20 4 -25
18 -21 9 3 38 8 65 12 26 3 50 10 53 15 3 5 13 9 23 9 9 0 26 7 37 15 22 17
19 17 -62 1z"/>
<path d="M3827 1233 c-3 -5 -8 -37 -12 -73 -4 -35 -12 -72 -19 -82 -8 -14 -8
-23 2 -39 7 -11 10 -28 7 -38 -3 -12 0 -21 9 -24 11 -5 17 4 22 31 9 47 7 232
-3 232 -1 0 -4 -3 -6 -7z"/>
<path d="M3295 1220 c-13 -6 -15 -9 -5 -9 8 0 22 4 30 9 18 12 2 12 -25 0z"/>
<path d="M4440 1140 c0 -6 13 -13 30 -16 16 -4 28 -10 25 -14 -3 -4 4 -10 14
-13 28 -7 35 20 9 34 -31 16 -78 22 -78 9z"/>
<path d="M5076 1086 c-31 -58 -2 -92 31 -36 9 17 21 30 26 30 4 0 3 9 -3 20
-16 29 -33 25 -54 -14z"/>
<path d="M7383 1083 c-33 -13 3 -85 71 -145 l31 -27 -82 -78 c-62 -59 -84 -88
-92 -118 -13 -49 0 -102 35 -145 30 -36 29 -36 -27 -10 -54 24 -131 26 -153 4
-21 -20 -20 -63 1 -94 9 -14 42 -55 74 -91 109 -124 136 -210 82 -261 -37 -34
-82 -43 -145 -27 -79 18 -159 70 -206 133 -23 30 -42 57 -42 59 0 2 26 20 59
40 50 31 60 43 70 79 25 92 -50 208 -136 208 -51 0 -133 -66 -169 -138 -24
-46 -31 -52 -72 -52 -39 0 -90 -20 -153 -61 -50 -32 -55 -44 -79 -209 -13 -86
-38 -122 -99 -138 -24 -7 154 -10 557 -11 l592 -1 0 35 c0 31 -5 38 -35 52
-29 14 -34 20 -28 37 9 25 9 82 -1 186 -7 68 -6 79 17 124 14 26 23 55 20 62
-3 8 1 14 11 14 14 0 16 30 16 284 l0 284 -31 6 c-36 7 -68 7 -86 -1z"/>
<path d="M6373 1025 c-49 -21 -58 -46 -55 -167 2 -123 3 -121 -99 -157 -109
-37 -149 -66 -149 -108 0 -60 113 -113 243 -113 57 0 68 3 81 22 9 12 16 42
16 65 0 45 16 62 70 78 36 10 60 35 60 60 0 22 -39 64 -77 84 -29 15 -31 56
-4 71 11 5 51 10 90 10 59 0 75 4 92 21 16 16 20 28 15 52 -9 42 -22 56 -65
62 -20 4 -48 13 -63 21 -33 18 -113 18 -155 -1z"/>
<path d="M2557 1019 c7 -7 15 -10 18 -7 3 3 -2 9 -12 12 -14 6 -15 5 -6 -5z"/>
<path d="M4267 1023 c-4 -3 -7 -11 -7 -17 0 -6 5 -5 12 2 6 6 9 14 7 17 -3 3
-9 2 -12 -2z"/>
<path d="M4982 991 c-90 -36 -107 -48 -91 -68 14 -16 45 -9 75 18 11 11 29 19
41 19 11 0 34 5 51 11 27 9 30 13 19 30 -15 23 -7 24 -95 -10z"/>
<path d="M4295 999 c-4 -6 -5 -12 -4 -13 31 -25 84 -54 91 -50 19 12 5 35 -32
54 -46 23 -47 23 -55 9z"/>
<path d="M2662 949 c-17 -27 -5 -40 14 -15 8 11 14 23 14 28 0 15 -15 8 -28
-13z"/>
<path d="M4401 927 c-8 -10 -4 -19 19 -35 16 -12 33 -22 38 -22 5 0 15 -7 22
-15 14 -17 40 -20 40 -6 0 5 -7 17 -16 26 -12 12 -19 13 -24 5 -5 -9 -9 -9
-14 -1 -4 6 -5 15 -2 20 3 5 -5 16 -19 25 -29 19 -30 19 -44 3z"/>
<path d="M2728 924 c-5 -4 -8 -16 -8 -28 0 -14 3 -17 11 -9 6 6 9 19 7 28 -1
9 -6 13 -10 9z"/>
<path d="M4807 886 c-25 -22 -35 -38 -31 -50 7 -19 11 -20 29 -3 7 6 27 23 44
37 17 14 31 30 31 37 0 23 -34 13 -73 -21z"/>
<path d="M28 872 c-24 -15 -28 -23 -28 -64 l0 -47 33 11 c69 24 104 61 92 98
-8 25 -58 26 -97 2z"/>
<path d="M4562 858 c-22 -22 -13 -28 39 -28 43 0 50 3 45 16 -3 9 -6 18 -6 20
0 10 -67 3 -78 -8z"/>
<path d="M4670 847 c0 -10 15 -17 46 -22 25 -3 48 -4 52 -1 11 12 -16 28 -57
33 -32 4 -41 2 -41 -10z"/>
<path d="M888 570 c-85 -15 -128 -72 -128 -170 0 -79 -14 -109 -60 -132 -37
-19 -95 -24 -104 -9 -3 5 -17 11 -30 13 -17 4 -26 0 -29 -12 -3 -13 -20 -19
-63 -24 -75 -8 -160 -47 -175 -80 -15 -33 0 -77 34 -96 24 -14 34 -13 111 8
102 26 132 19 142 -35 l6 -33 69 0 c60 0 69 2 69 18 0 30 21 42 75 43 27 1 61
4 75 8 29 8 60 62 60 107 0 53 27 68 113 59 73 -6 75 -6 96 21 11 15 21 37 21
51 0 15 8 27 25 35 14 6 25 20 25 30 0 25 -103 133 -157 165 -48 28 -121 42
-175 33z"/>
<path d="M5354 551 c-55 -34 -72 -65 -79 -149 -9 -102 -12 -110 -48 -133 -38
-23 -85 -24 -134 -4 -44 19 -43 19 -43 -4 0 -15 -10 -19 -53 -24 -153 -18
-224 -87 -166 -161 24 -30 56 -33 121 -12 104 34 140 26 153 -34 7 -30 7 -30
76 -30 60 0 69 2 69 18 0 29 21 42 70 43 97 1 119 19 135 111 10 61 27 71 109
64 82 -7 116 7 116 50 0 16 11 36 30 52 17 15 30 32 30 38 0 24 -137 153 -184
174 -63 26 -159 27 -202 1z"/>
<path d="M1 266 c4 -256 6 -262 55 -209 25 27 49 74 60 120 5 17 2 23 -9 23
-9 0 -29 12 -46 26 -44 37 -43 80 4 130 19 20 35 39 35 41 0 12 -64 84 -82 94
-20 11 -20 9 -17 -225z"/>
<path d="M3790 403 c-30 -12 -63 -24 -72 -26 -11 -3 -18 -15 -18 -29 0 -13 -9
-34 -21 -47 -17 -18 -30 -21 -67 -19 -42 3 -47 6 -50 28 -8 56 -20 58 -171 27
-54 -11 -69 -19 -97 -51 -88 -101 -60 -186 60 -186 50 0 161 38 206 70 36 26
48 25 92 -5 51 -35 63 -59 43 -87 -8 -13 -15 -35 -15 -50 l0 -28 110 0 c63 0
135 6 168 14 31 8 88 22 125 30 119 27 122 29 125 116 3 85 -16 152 -52 175
-16 11 -50 14 -130 12 l-108 -2 -37 40 -36 41 -55 -23z"/>
<path d="M1336 15 c4 -9 19 -15 38 -15 l31 1 -34 14 c-41 18 -42 18 -35 0z"/>
<path d="M5850 19 c0 -13 24 -22 47 -17 13 3 9 7 -14 15 -20 7 -33 8 -33 2z"/>
<path d="M6268 3 c6 -2 18 -2 25 0 6 3 1 5 -13 5 -14 0 -19 -2 -12 -5z"/>
</g>
</svg>
